<?xml version="1.0" encoding="utf-8"?>
<!-- Generator: Adobe Illustrator 23.0.3, SVG Export Plug-In . SVG Version: 6.00 Build 0)  -->
<svg version="1.1" id="图层_1" xmlns="http://www.w3.org/2000/svg" xmlns:xlink="http://www.w3.org/1999/xlink" x="0px" y="0px"
	 viewBox="0 0 80 80" style="enable-background:new 0 0 80 80;" xml:space="preserve">
<style type="text/css">
	.st0{fill:#00A0E9;}
</style>
<g>
	<path class="st0" d="M40-0.5C17.67-0.5-0.5,17.67-0.5,40c0,22.33,18.17,40.5,40.5,40.5c22.33,0,40.5-18.17,40.5-40.5
		C80.5,17.67,62.33-0.5,40-0.5z M40,79.5C18.22,79.5,0.5,61.78,0.5,40S18.22,0.5,40,0.5S79.5,18.22,79.5,40S61.78,79.5,40,79.5z"/>
	<path class="st0" d="M19.18,52.29c-1.04,0.5-2.36,0.75-3.94,0.75c-1.58,0-3.01-0.38-4.29-1.14c-1.28-0.76-2.3-1.99-3.04-3.67
		c-0.75-1.69-1.12-3.92-1.12-6.71c0-2.86,0.39-5.13,1.18-6.82c0.78-1.69,1.82-2.91,3.11-3.65c1.29-0.74,2.69-1.11,4.22-1.11
		c1.11,0,2.16,0.17,3.17,0.51c1.01,0.34,1.96,0.89,2.86,1.63l2.25-2.65c-1.15-0.94-2.38-1.65-3.69-2.14
		c-1.31-0.49-2.92-0.73-4.84-0.73c-2.28,0-4.38,0.57-6.29,1.71s-3.44,2.82-4.58,5.05c-1.14,2.23-1.71,4.96-1.71,8.21
		c0,3.25,0.56,5.99,1.68,8.22c1.12,2.23,2.64,3.92,4.55,5.07c1.91,1.15,4.06,1.72,6.46,1.72c2.09,0,3.85-0.32,5.3-0.97
		c1.45-0.64,2.63-1.41,3.54-2.31l-2.08-2.67C21.13,51.23,20.23,51.8,19.18,52.29z"/>
	<rect x="29.53" y="41.15" class="st0" width="17.05" height="3.4"/>
	<path class="st0" d="M73.27,27.06h-5.44L63.59,46.7l-4.45-19.64h-5.4L52.1,56h3.82l0.69-14.68c0.04-1.26,0.07-2.58,0.07-3.96
		c0.01-1.38,0-2.66-0.02-3.83c-0.02-1.18-0.05-2.09-0.09-2.73l4.96,20.06h3.91l4.62-20.06c-0.03,0.67-0.05,1.57-0.05,2.7
		c-0.01,1.13,0,2.37,0.03,3.73s0.08,2.72,0.15,4.09L71,56h3.91L73.27,27.06z"/>
</g>
</svg>
